<svg width="128" height="133" viewBox="0 0 128 133" fill="none" xmlns="http://www.w3.org/2000/svg">
<path d="M1.57172 89.9786C1.05749 90.18 0.80332 90.7608 1.01257 91.2719C6.68415 105.126 16.913 116.644 30.0231 123.912C43.4251 131.342 58.9987 133.865 74.0608 131.046C89.123 128.227 102.73 120.243 112.538 108.469C122.346 96.6956 127.741 81.8698 127.792 66.5463C127.843 51.2228 122.549 36.3611 112.82 24.522C103.091 12.6828 89.5377 4.60758 74.4948 1.68762C59.452 -1.23235 43.8617 1.18583 30.4102 8.52548C17.2516 15.7053 6.94575 27.1548 1.18132 40.9705C0.968658 41.4802 1.21893 42.0627 1.7318 42.2676L2.311 42.499C2.82387 42.7039 3.40508 42.4537 3.61807 41.9441C9.15573 28.6953 19.0443 17.716 31.6669 10.8287C44.5824 3.78146 59.5515 1.45965 73.9949 4.26326C88.4383 7.06686 101.452 14.8203 110.793 26.1877C120.134 37.5551 125.218 51.8246 125.168 66.5375C125.119 81.2504 119.939 95.4855 110.522 106.79C101.105 118.094 88.0401 125.76 73.5782 128.467C59.1163 131.174 44.1632 128.751 31.2952 121.618C18.7191 114.646 8.90441 103.6 3.45578 90.3147C3.24622 89.8037 2.66669 89.5496 2.15247 89.7511L1.57172 89.9786Z" fill="#926AE7"/>
</svg>
