<svg width="31" height="27" viewBox="0 0 31 27" fill="none" xmlns="http://www.w3.org/2000/svg">
<path d="M0.102539 8.40496V21.0646C0.102539 22.4179 0.640136 23.7158 1.59707 24.6727C2.55399 25.6296 3.85187 26.1672 5.20517 26.1672H25.6157C26.969 26.1672 28.2669 25.6296 29.2238 24.6727C30.1807 23.7158 30.7183 22.4179 30.7183 21.0646V5.7567C30.7183 4.40339 30.1807 3.10552 29.2238 2.14859C28.2669 1.19166 26.969 0.654064 25.6157 0.654064H5.20517C3.85187 0.654064 2.55399 1.19166 1.59707 2.14859C0.640136 3.10552 0.102539 4.40339 0.102539 5.7567V8.40496ZM5.20517 3.20538H25.6157C26.2923 3.20538 26.9413 3.47418 27.4197 3.95264C27.8982 4.43111 28.167 5.08004 28.167 5.7567V7.64467L15.4104 14.5128L2.65385 7.64467V5.7567C2.65385 5.08004 2.92265 4.43111 3.40112 3.95264C3.87958 3.47418 4.52852 3.20538 5.20517 3.20538V3.20538ZM2.65385 10.543L14.8058 17.0845C14.9916 17.1846 15.1994 17.2369 15.4104 17.2369C15.6215 17.2369 15.8293 17.1846 16.0151 17.0845L28.167 10.543V21.0646C28.167 21.7412 27.8982 22.3902 27.4197 22.8686C26.9413 23.3471 26.2923 23.6159 25.6157 23.6159H5.20517C4.52852 23.6159 3.87958 23.3471 3.40112 22.8686C2.92265 22.3902 2.65385 21.7412 2.65385 21.0646V10.543Z" fill="#A983EC" fill-opacity="0.8"/>
</svg>
