<svg width="111" height="111" viewBox="0 0 111 111" fill="none" xmlns="http://www.w3.org/2000/svg">
<path d="M103.559 61.6806C103.385 62.205 103.121 62.5888 102.766 62.832C102.418 63.0834 101.988 63.1873 101.475 63.1437C100.789 63.0853 100.279 62.7875 99.9453 62.2503C99.6107 61.7207 99.4841 60.9771 99.5655 60.0196L99.8733 56.4008L107.79 57.0741L107.5 60.4781C107.426 61.3451 107.192 62.0048 106.796 62.4571C106.408 62.9177 105.886 63.1201 105.23 63.0643C104.8 63.0277 104.444 62.8873 104.161 62.643C103.877 62.4063 103.677 62.0855 103.559 61.6806ZM104.211 57.8974L104.024 60.1026C103.977 60.653 104.051 61.0807 104.245 61.3858C104.438 61.6985 104.746 61.8727 105.169 61.9086C105.591 61.9445 105.924 61.8248 106.167 61.5493C106.418 61.2745 106.567 60.8657 106.613 60.3229L106.801 58.1177L104.211 57.8974ZM100.461 60.073C100.358 61.2868 100.758 61.9322 101.663 62.0092C102.115 62.0476 102.46 61.9213 102.698 61.6301C102.942 61.3472 103.09 60.9041 103.141 60.301L103.352 57.8243L100.671 57.5964L100.461 60.073Z" fill="url(#paint0_linear_249_8858)"/>
<path d="M106.599 66.8424L106.293 67.9235L100.396 66.2533L105.013 72.4445L104.728 73.4491L97.0841 71.284L97.3872 70.2138L103.273 71.881L98.6708 65.682L98.9554 64.6773L106.599 66.8424Z" fill="url(#paint1_linear_249_8858)"/>
<path d="M93.7311 80.2029L91.3128 78.9494L91.7985 78.0123L93.3402 78.8114L96.3487 73.0073L94.8123 72.1981L95.298 71.261L97.7111 72.5246L97.5336 72.8672C97.3306 73.3245 97.518 73.818 98.0958 74.3476C98.6802 74.8806 99.5767 75.4859 100.785 76.1635L103.016 77.4092L100.446 82.3668L94.2691 79.165L93.7311 80.2029ZM100.235 77.0032C99.258 76.4542 98.4769 75.9471 97.8914 75.4817C97.3025 75.023 96.9551 74.5915 96.8493 74.1873L94.7862 78.1675L100.086 80.9148L101.69 77.8214L100.235 77.0032Z" fill="url(#paint2_linear_249_8858)"/>
<path d="M89.3765 85.791L88.5931 85.1899L92.1027 80.6155L98.4061 85.4516L94.9932 89.8999L94.2097 89.2989L96.9318 85.751L94.9958 84.2656L92.5708 87.4263L91.8054 86.8391L94.2304 83.6784L92.1953 82.117L89.3765 85.791Z" fill="url(#paint3_linear_249_8858)"/>
<path d="M84.9345 88.5399C85.5297 88.0024 86.1826 87.6472 86.8932 87.4745C87.6089 87.3073 88.3122 87.3297 89.0032 87.5417C89.6886 87.7588 90.2874 88.1509 90.7996 88.718C91.3118 89.2852 91.6411 89.9207 91.7874 90.6246C91.9281 91.3336 91.8764 92.0327 91.6324 92.7221C91.3934 93.4171 90.9763 94.0334 90.3811 94.5709C89.7914 95.1034 89.1388 95.4532 88.4231 95.6204C87.7125 95.7931 87.0145 95.771 86.3292 95.5539C85.6488 95.3425 85.05 94.9504 84.5328 94.3776C84.0155 93.8048 83.6837 93.1665 83.5374 92.4626C83.3962 91.7643 83.445 91.0677 83.684 90.3727C83.928 89.6833 84.3449 89.0724 84.9345 88.5399ZM85.6115 89.2896C85.1791 89.6801 84.8804 90.1283 84.7153 90.6342C84.5447 91.1451 84.5157 91.6606 84.6286 92.1807C84.7408 92.7114 84.9897 93.1901 85.3751 93.6169C85.7605 94.0437 86.209 94.3371 86.7205 94.497C87.2314 94.6677 87.7497 94.6941 88.2754 94.5762C88.7954 94.4634 89.2717 94.2118 89.7041 93.8213C90.1364 93.4308 90.4408 92.9775 90.6171 92.4615C90.7877 91.9505 90.8169 91.4297 90.7047 90.8989C90.5918 90.3789 90.3427 89.9055 89.9573 89.4787C89.5719 89.052 89.1237 88.7532 88.6127 88.5826C88.1012 88.4226 87.5826 88.4015 87.057 88.5194C86.5257 88.6424 86.0439 88.8991 85.6115 89.2896Z" fill="url(#paint4_linear_249_8858)"/>
<path d="M75.2724 95.1186C75.9872 94.7548 76.7101 94.5821 77.4412 94.6005C78.1757 94.6257 78.8489 94.8307 79.4607 95.2155C80.0659 95.6037 80.5417 96.1383 80.8884 96.8194C81.2351 97.5004 81.3873 98.1998 81.345 98.9175C81.2961 99.6386 81.0639 100.3 80.6486 100.902C80.2368 101.511 79.6735 101.997 78.9587 102.361C78.2506 102.721 77.5294 102.889 76.7949 102.864C76.0638 102.845 75.3957 102.642 74.7906 102.254C74.1889 101.872 73.713 101.338 73.3629 100.65C73.0128 99.9619 72.8589 99.2592 72.9011 98.5415C72.9468 97.8305 73.1756 97.1707 73.5874 96.562C74.0027 95.9601 74.5644 95.479 75.2724 95.1186ZM75.7306 96.0188C75.2114 96.2831 74.8062 96.6379 74.515 97.0833C74.217 97.5321 74.0547 98.0222 74.0281 98.5537C73.9981 99.0953 74.1136 99.6224 74.3744 100.135C74.6353 100.647 74.9918 101.048 75.4439 101.335C75.8927 101.633 76.3862 101.794 76.9244 101.817C77.4559 101.844 77.9812 101.725 78.5005 101.461C79.0197 101.196 79.4317 100.838 79.7364 100.386C80.0343 99.937 80.1983 99.4418 80.2282 98.9001C80.2549 98.3687 80.1378 97.8467 79.8769 97.3342C79.6161 96.8217 79.2612 96.4165 78.8124 96.1185C78.3603 95.8308 77.8651 95.6753 77.3269 95.6521C76.782 95.6323 76.2499 95.7545 75.7306 96.0188Z" fill="url(#paint5_linear_249_8858)"/>
<path d="M65.6138 102.3L67.2313 101.94L66.4718 98.5278L67.5575 98.2862L69.2837 106.041L68.1979 106.283L67.4483 102.915L65.8087 103.28L64.121 107.19L62.9356 107.454L64.8693 103.082L61.0765 99.7287L62.3395 99.4476L65.6138 102.3Z" fill="url(#paint6_linear_249_8858)"/>
<path d="M56.485 99.7828C57.2868 99.7612 58.0138 99.9156 58.6661 100.246C59.3187 100.584 59.8386 101.058 60.226 101.669C60.6058 102.279 60.806 102.966 60.8267 103.73C60.8473 104.494 60.6845 105.191 60.3382 105.821C59.9844 106.451 59.4907 106.949 58.8572 107.314C58.2238 107.687 57.5063 107.885 56.7046 107.906C55.9104 107.928 55.187 107.769 54.5345 107.431C53.8822 107.101 53.3661 106.63 52.9863 106.02C52.6067 105.417 52.4064 104.73 52.3856 103.958C52.3647 103.187 52.5275 102.486 52.8738 101.856C53.2203 101.234 53.7102 100.736 54.3435 100.363C54.977 99.9977 55.6908 99.8043 56.485 99.7828ZM56.5123 100.793C55.9299 100.808 55.4116 100.955 54.9574 101.232C54.4956 101.509 54.1385 101.882 53.8863 102.351C53.6266 102.827 53.5046 103.353 53.5201 103.928C53.5357 104.502 53.6858 105.017 53.9706 105.471C54.248 105.933 54.6247 106.29 55.1008 106.542C55.5694 106.794 56.0949 106.912 56.6773 106.897C57.2597 106.881 57.7856 106.734 58.2549 106.456C58.7167 106.179 59.0774 105.802 59.337 105.326C59.5893 104.857 59.7077 104.336 59.6921 103.761C59.6766 103.186 59.5301 102.668 59.2527 102.206C58.968 101.752 58.5875 101.399 58.1114 101.147C57.6278 100.895 57.0947 100.777 56.5123 100.793Z" fill="url(#paint7_linear_249_8858)"/>
<path d="M43.4566 98.3778L42.3398 104.057L46.0962 99.8858L46.6083 99.9875L48.4914 105.245L49.6127 99.6008L50.6814 99.8131L49.1333 107.606L48.2204 107.424L46.058 101.301L41.7638 106.142L40.8509 105.96L42.388 98.1655L43.4566 98.3778Z" fill="url(#paint8_linear_249_8858)"/>
<path d="M30.8365 101.846L34.0402 94.5757L35.0581 95.0243L32.2525 101.391L36.4692 103.249L39.2748 96.8825L40.303 97.3356L37.0992 104.606L30.8365 101.846Z" fill="url(#paint9_linear_249_8858)"/>
<path d="M26.715 91.9684L30.1653 94.4019L32.0242 93.2825L32.9795 93.9563L25.4603 98.3751L24.5421 97.7274L26.1718 89.1548L27.1457 89.8416L26.715 91.9684ZM26.5163 92.9394L25.6731 97.1085L29.3173 94.915L26.5163 92.9394Z" fill="url(#paint10_linear_249_8858)"/>
<path d="M14.8557 88.701L20.6344 83.2488L21.4133 84.0744L18.8377 86.5045L21.9688 89.8231L24.5444 87.393L25.3233 88.2185L19.5446 93.6707L18.7657 92.8452L21.2506 90.5007L18.1194 87.1821L15.6346 89.5265L14.8557 88.701Z" fill="url(#paint11_linear_249_8858)"/>
<path d="M19.3063 81.4122L12.5413 85.5782L11.9522 84.6214L17.1708 81.4076L9.48826 80.6204L8.94073 79.7313L15.7057 75.5653L16.2889 76.5124L11.0799 79.7202L18.7587 80.523L19.3063 81.4122Z" fill="url(#paint12_linear_249_8858)"/>
<path d="M7.34259 76.2641L6.95973 75.2078L12.7218 73.1194L5.35868 70.7902L5.0029 69.8085L12.4723 67.1014L12.8513 68.1471L7.09984 70.2316L14.4562 72.5754L14.812 73.557L7.34259 76.2641Z" fill="url(#paint13_linear_249_8858)"/>
<path d="M9.52146 62.3084C9.5667 62.6153 9.50371 62.8884 9.3325 63.1278C9.16128 63.3672 8.91099 63.5112 8.58163 63.5597C8.25226 63.6083 7.97482 63.5421 7.74929 63.3612C7.51629 63.1814 7.37716 62.938 7.33192 62.6311C7.28448 62.3092 7.34691 62.0323 7.51923 61.8004C7.68406 61.5696 7.93116 61.43 8.26053 61.3814C8.5899 61.3329 8.87053 61.3948 9.10243 61.5671C9.33434 61.7394 9.47401 61.9865 9.52146 62.3084Z" fill="url(#paint14_linear_249_8858)"/>
<path d="M7.11487 51.6974C7.26414 51.1655 7.51036 50.7699 7.85355 50.5106C8.18947 50.2434 8.61449 50.1197 9.12863 50.1395C9.81667 50.1661 10.3399 50.44 10.6984 50.9612C11.0572 51.4748 11.218 52.2117 11.181 53.1719L11.0408 56.8011L3.10194 56.4946L3.23375 53.0809C3.26732 52.2114 3.47113 51.5415 3.84517 51.0713C4.21195 50.5933 4.72423 50.367 5.38203 50.3924C5.81299 50.4091 6.17546 50.5328 6.46943 50.7638C6.76369 50.9872 6.97884 51.2984 7.11487 51.6974ZM6.6384 55.5067L6.72379 53.2951C6.7451 52.7432 6.65168 52.3193 6.4435 52.0235C6.23563 51.7202 5.91998 51.5604 5.49658 51.544C5.07317 51.5277 4.74614 51.6627 4.51549 51.9491C4.27728 52.2352 4.14766 52.6505 4.12664 53.1948L4.04125 55.4064L6.6384 55.5067ZM10.2841 53.16C10.3311 51.9427 9.90097 51.3165 8.99367 51.2815C8.54002 51.264 8.20136 51.4061 7.97769 51.708C7.74674 52.0019 7.61959 52.4513 7.59624 53.0562L7.50034 55.5399L10.1882 55.6437L10.2841 53.16Z" fill="url(#paint15_linear_249_8858)"/>
<path d="M11.5705 48.4688L3.83574 46.6541L4.09238 45.5602L10.0592 46.9601L5.16558 40.9856L5.40407 39.9691L13.1389 41.7837L12.8848 42.8666L6.92903 41.4693L11.809 47.4522L11.5705 48.4688Z" fill="url(#paint16_linear_249_8858)"/>
<path d="M16.0057 32.8298L18.4817 33.9653L18.0417 34.9247L16.4633 34.2009L13.7382 40.1433L15.3119 40.8774L14.8719 41.8369L12.4007 40.6911L12.5615 40.3403C12.7422 39.8738 12.5312 39.39 11.9286 38.8889C11.3191 38.3846 10.3945 37.8232 9.15479 37.2048L6.86666 36.0681L9.19433 30.9923L15.5184 33.8924L16.0057 32.8298ZM9.66397 36.3395C10.6661 36.8407 11.4708 37.3096 12.078 37.7462C12.6884 38.176 13.0561 38.5902 13.1813 38.9889L15.0501 34.9138L9.6235 32.4252L8.17107 35.5925L9.66397 36.3395Z" fill="url(#paint17_linear_249_8858)"/>
<path d="M14.4806 28.9098L16.8111 25.5537L17.6035 26.104L15.273 29.4601L14.4806 28.9098ZM17.4381 30.8392L20.0794 27.0356L20.8904 27.5988L17.6018 32.3347L11.0761 27.8031L14.2741 23.1978L15.0851 23.761L12.5345 27.4341L17.4381 30.8392Z" fill="url(#paint18_linear_249_8858)"/>
<path d="M24.3198 24.1248C23.7506 24.6899 23.1152 25.0755 22.4136 25.2816C21.7066 25.4824 21.003 25.4932 20.3027 25.3141C19.6079 25.1296 18.9912 24.7663 18.4528 24.2239C17.9144 23.6816 17.5555 23.0623 17.3761 22.3661C17.2021 21.6646 17.2207 20.9638 17.4319 20.2636C17.6378 19.5581 18.0253 18.9229 18.5945 18.3578C19.1583 17.798 19.7937 17.4178 20.5007 17.2171C21.2023 17.0109 21.9006 17.0001 22.5955 17.1845C23.285 17.3636 23.9017 17.727 24.4454 18.2747C24.9892 18.8224 25.3507 19.4444 25.5301 20.1406C25.7042 20.8314 25.6882 21.5296 25.4824 22.2351C25.2712 22.9352 24.8836 23.5651 24.3198 24.1248ZM23.6082 23.408C24.0216 22.9975 24.2988 22.5357 24.4398 22.0226C24.5862 21.5042 24.5907 20.9879 24.4535 20.4737C24.3163 19.9489 24.0451 19.4824 23.64 19.0743C23.2348 18.6662 22.773 18.3944 22.2545 18.2587C21.736 18.1124 21.2171 18.1105 20.6976 18.2531C20.1834 18.3903 19.7196 18.6642 19.3062 19.0746C18.8927 19.4851 18.6101 19.9522 18.4584 20.476C18.3121 20.9945 18.3075 21.5161 18.4447 22.0409C18.5819 22.5551 18.8531 23.0162 19.2583 23.4243C19.6634 23.8324 20.1252 24.1096 20.6437 24.256C21.1622 24.3916 21.6811 24.3881 22.2006 24.2456C22.7255 24.0977 23.1947 23.8185 23.6082 23.408Z" fill="url(#paint19_linear_249_8858)"/>
<path d="M33.8155 16.9585C33.1176 17.3537 32.403 17.5582 31.6719 17.5722C30.937 17.5796 30.2554 17.4047 29.6271 17.0474C29.0053 16.6864 28.5062 16.1734 28.1297 15.5084C27.7532 14.8434 27.5701 14.1514 27.5805 13.4325C27.5974 12.71 27.8 12.0388 28.1882 11.419C28.5727 10.7927 29.1139 10.282 29.8118 9.88683C30.5032 9.49541 31.2163 9.296 31.9512 9.2886C32.6824 9.27462 33.3588 9.44813 33.9806 9.80911C34.5986 10.1635 35.0977 10.6765 35.4779 11.3481C35.8582 12.0197 36.0431 12.715 36.0327 13.4338C36.0186 14.1461 35.8194 14.8154 35.4349 15.4418C35.0467 16.0615 34.5069 16.5671 33.8155 16.9585ZM33.3179 16.0795C33.8249 15.7924 34.214 15.42 34.4851 14.9621C34.7629 14.5006 34.9033 14.0037 34.9064 13.4716C34.9123 12.9292 34.7736 12.4077 34.4903 11.9073C34.207 11.4069 33.8331 11.023 33.3686 10.7555C32.9071 10.4777 32.4069 10.3392 31.8682 10.3399C31.3361 10.3368 30.8165 10.4788 30.3095 10.7658C29.8025 11.0529 29.4068 11.4291 29.1225 11.8944C28.8447 12.356 28.7029 12.858 28.697 13.4004C28.6939 13.9325 28.834 14.4488 29.1174 14.9492C29.4007 15.4496 29.7731 15.8387 30.2347 16.1165C30.6991 16.3839 31.2007 16.5173 31.7394 16.5166C32.2847 16.5122 32.8109 16.3665 33.3179 16.0795Z" fill="url(#paint20_linear_249_8858)"/>
<path d="M43.0409 9.35552L41.4415 9.78894L42.3559 13.163L41.2823 13.4539L39.2043 5.78566L40.2778 5.49474L41.1803 8.82494L42.8016 8.38558L44.3091 4.40228L45.4813 4.08464L43.749 8.54041L47.6908 11.7172L46.4419 12.0557L43.0409 9.35552Z" fill="url(#paint21_linear_249_8858)"/>
<path d="M52.245 11.4302C51.4451 11.4889 50.7117 11.3683 50.0448 11.0683C49.3773 10.7607 48.836 10.3111 48.4208 9.71944C48.0131 9.12725 47.7813 8.45007 47.7254 7.68791C47.6694 6.92575 47.7998 6.22198 48.1166 5.57659C48.4409 4.93066 48.9111 4.41058 49.527 4.01636C50.1424 3.61459 50.85 3.38434 51.6499 3.32561C52.4423 3.26743 53.1722 3.39213 53.8396 3.6997C54.5066 3.99973 55.0438 4.44584 55.4515 5.03803C55.8586 5.62267 56.0904 6.29985 56.1469 7.06956C56.2034 7.83926 56.0733 8.54681 55.7565 9.19219C55.4392 9.83003 54.9728 10.3498 54.3574 10.7516C53.7415 11.1458 53.0373 11.372 52.245 11.4302ZM52.171 10.4228C52.7521 10.3801 53.2631 10.2098 53.704 9.91191C54.1525 9.61344 54.4919 9.22435 54.7222 8.74464C54.9595 8.25684 55.0571 7.72618 55.015 7.15267C54.9729 6.57916 54.7991 6.07222 54.4936 5.63185C54.1952 5.18338 53.8023 4.84427 53.315 4.6145C52.8353 4.38419 52.3049 4.29036 51.7239 4.33302C51.1428 4.37569 50.6243 4.54653 50.1683 4.84556C49.7198 5.14402 49.3769 5.53716 49.1396 6.02497C48.9093 6.50468 48.8152 7.03129 48.8573 7.6048C48.8994 8.17831 49.0697 8.6893 49.3682 9.13777C49.6736 9.57813 50.07 9.9132 50.5572 10.143C51.052 10.3722 51.59 10.4654 52.171 10.4228Z" fill="url(#paint22_linear_249_8858)"/>
<path d="M65.4437 12.2259L66.2986 6.50102L62.7377 10.8407L62.2215 10.7626L60.099 5.59728L59.238 11.2868L58.1607 11.1238L59.3494 3.26841L60.2696 3.40766L62.7109 9.42475L66.7783 4.39262L67.6985 4.53188L66.521 12.3889L65.4437 12.2259Z" fill="url(#paint23_linear_249_8858)"/>
<path d="M77.738 8.11684L74.8634 15.5234L73.8265 15.1209L76.3438 8.63493L72.048 6.96768L69.5307 13.4537L68.4832 13.0471L71.3578 5.64061L77.738 8.11684Z" fill="url(#paint24_linear_249_8858)"/>
<path d="M82.4072 17.8125L78.8533 15.533L77.0454 16.7329L76.0614 16.1018L83.3792 11.357L84.325 11.9636L83.0735 20.5996L82.0704 19.9562L82.4072 17.8125ZM82.563 16.8338L83.2223 12.6317L79.6779 14.9832L82.563 16.8338Z" fill="url(#paint25_linear_249_8858)"/>
<path d="M94.3624 20.4562L88.8476 26.1752L88.0306 25.3874L90.4886 22.8383L87.2043 19.6712L84.7463 22.2203L83.9293 21.4324L89.4441 15.7135L90.2611 16.5013L87.8897 18.9605L91.174 22.1276L93.5454 19.6684L94.3624 20.4562Z" fill="url(#paint26_linear_249_8858)"/>
<path d="M96.8156 23.4249L97.4497 24.3525L92.3901 27.8113L100.101 28.2315L100.691 29.0935L94.132 33.5772L93.5043 32.659L98.5545 29.2066L90.8462 28.7706L90.2569 27.9086L96.8156 23.4249Z" fill="url(#paint27_linear_249_8858)"/>
<path d="M102.548 32.6207L102.978 33.6588L97.316 36.0041L104.776 38L105.176 38.9647L97.8358 42.0048L97.4102 40.9772L103.062 38.6363L95.6078 36.6256L95.2082 35.6609L102.548 32.6207Z" fill="url(#paint28_linear_249_8858)"/>
<path d="M101.022 46.6735C100.962 46.3616 101.011 46.0821 101.171 45.8351C101.333 45.5955 101.577 45.4439 101.904 45.3803C102.23 45.3167 102.51 45.3663 102.742 45.5293C102.982 45.6907 103.132 45.9312 103.195 46.2505C103.257 46.5699 103.207 46.8494 103.046 47.0889C102.892 47.3271 102.651 47.4779 102.324 47.5416C101.998 47.6052 101.714 47.5563 101.475 47.3948C101.235 47.2333 101.084 46.9929 101.022 46.6735Z" fill="url(#paint29_linear_249_8858)"/>
<defs>
<linearGradient id="paint0_linear_249_8858" x1="110.581" y1="60.308" x2="96.4446" y2="59.1057" gradientUnits="userSpaceOnUse">
<stop stop-color="#E7B4FF"/>
<stop offset="1" stop-color="#8F7BFF"/>
</linearGradient>
<linearGradient id="paint1_linear_249_8858" x1="108.683" y1="70.6971" x2="95.0329" y2="66.8308" gradientUnits="userSpaceOnUse">
<stop stop-color="#E7B4FF"/>
<stop offset="1" stop-color="#8F7BFF"/>
</linearGradient>
<linearGradient id="paint2_linear_249_8858" x1="104.598" y1="80.9964" x2="92.002" y2="74.4675" gradientUnits="userSpaceOnUse">
<stop stop-color="#E7B4FF"/>
<stop offset="1" stop-color="#8F7BFF"/>
</linearGradient>
<linearGradient id="paint3_linear_249_8858" x1="99.3634" y1="89.2229" x2="88.1075" y2="80.587" gradientUnits="userSpaceOnUse">
<stop stop-color="#E7B4FF"/>
<stop offset="1" stop-color="#8F7BFF"/>
</linearGradient>
<linearGradient id="paint4_linear_249_8858" x1="92.4845" y1="96.6656" x2="82.9758" y2="86.1366" gradientUnits="userSpaceOnUse">
<stop stop-color="#E7B4FF"/>
<stop offset="1" stop-color="#8F7BFF"/>
</linearGradient>
<linearGradient id="paint5_linear_249_8858" x1="80.4434" y1="104.931" x2="74.008" y2="92.2878" gradientUnits="userSpaceOnUse">
<stop stop-color="#E7B4FF"/>
<stop offset="1" stop-color="#8F7BFF"/>
</linearGradient>
<linearGradient id="paint6_linear_249_8858" x1="67.4333" y1="109.583" x2="64.351" y2="95.7347" gradientUnits="userSpaceOnUse">
<stop stop-color="#E7B4FF"/>
<stop offset="1" stop-color="#8F7BFF"/>
</linearGradient>
<linearGradient id="paint7_linear_249_8858" x1="56.9417" y1="110.865" x2="56.5584" y2="96.6834" gradientUnits="userSpaceOnUse">
<stop stop-color="#E7B4FF"/>
<stop offset="1" stop-color="#8F7BFF"/>
</linearGradient>
<linearGradient id="paint8_linear_249_8858" x1="44.5983" y1="109.82" x2="47.3628" y2="95.9044" gradientUnits="userSpaceOnUse">
<stop stop-color="#E7B4FF"/>
<stop offset="1" stop-color="#8F7BFF"/>
</linearGradient>
<linearGradient id="paint9_linear_249_8858" x1="33.0133" y1="106.144" x2="38.7343" y2="93.1614" gradientUnits="userSpaceOnUse">
<stop stop-color="#E7B4FF"/>
<stop offset="1" stop-color="#8F7BFF"/>
</linearGradient>
<linearGradient id="paint10_linear_249_8858" x1="23.4901" y1="100.724" x2="31.6672" y2="89.1306" gradientUnits="userSpaceOnUse">
<stop stop-color="#E7B4FF"/>
<stop offset="1" stop-color="#8F7BFF"/>
</linearGradient>
<linearGradient id="paint11_linear_249_8858" x1="15.1897" y1="93.5069" x2="25.5088" y2="83.7709" gradientUnits="userSpaceOnUse">
<stop stop-color="#E7B4FF"/>
<stop offset="1" stop-color="#8F7BFF"/>
</linearGradient>
<linearGradient id="paint12_linear_249_8858" x1="8.29286" y1="84.5057" x2="20.3731" y2="77.0664" gradientUnits="userSpaceOnUse">
<stop stop-color="#E7B4FF"/>
<stop offset="1" stop-color="#8F7BFF"/>
</linearGradient>
<linearGradient id="paint13_linear_249_8858" x1="3.39999" y1="74.3522" x2="16.7382" y2="69.5181" gradientUnits="userSpaceOnUse">
<stop stop-color="#E7B4FF"/>
<stop offset="1" stop-color="#8F7BFF"/>
</linearGradient>
<linearGradient id="paint14_linear_249_8858" x1="0.714164" y1="63.6696" x2="14.7496" y2="61.6007" gradientUnits="userSpaceOnUse">
<stop stop-color="#E7B4FF"/>
<stop offset="1" stop-color="#8F7BFF"/>
</linearGradient>
<linearGradient id="paint15_linear_249_8858" x1="0.164216" y1="53.3931" x2="14.3408" y2="53.9405" gradientUnits="userSpaceOnUse">
<stop stop-color="#E7B4FF"/>
<stop offset="1" stop-color="#8F7BFF"/>
</linearGradient>
<linearGradient id="paint16_linear_249_8858" x1="1.5787" y1="42.8984" x2="15.3908" y2="46.1387" gradientUnits="userSpaceOnUse">
<stop stop-color="#E7B4FF"/>
<stop offset="1" stop-color="#8F7BFF"/>
</linearGradient>
<linearGradient id="paint17_linear_249_8858" x1="5.11364" y1="32.5614" x2="18.0095" y2="38.4752" gradientUnits="userSpaceOnUse">
<stop stop-color="#E7B4FF"/>
<stop offset="1" stop-color="#8F7BFF"/>
</linearGradient>
<linearGradient id="paint18_linear_249_8858" x1="9.94088" y1="24.0815" x2="21.594" y2="32.1735" gradientUnits="userSpaceOnUse">
<stop stop-color="#E7B4FF"/>
<stop offset="1" stop-color="#8F7BFF"/>
</linearGradient>
<linearGradient id="paint19_linear_249_8858" x1="16.3945" y1="16.3647" x2="26.3898" y2="26.4329" gradientUnits="userSpaceOnUse">
<stop stop-color="#E7B4FF"/>
<stop offset="1" stop-color="#8F7BFF"/>
</linearGradient>
<linearGradient id="paint20_linear_249_8858" x1="28.2146" y1="7.38459" x2="35.2043" y2="19.7304" gradientUnits="userSpaceOnUse">
<stop stop-color="#E7B4FF"/>
<stop offset="1" stop-color="#8F7BFF"/>
</linearGradient>
<linearGradient id="paint21_linear_249_8858" x1="40.8912" y1="2.16313" x2="44.602" y2="15.8564" gradientUnits="userSpaceOnUse">
<stop stop-color="#E7B4FF"/>
<stop offset="1" stop-color="#8F7BFF"/>
</linearGradient>
<linearGradient id="paint22_linear_249_8858" x1="51.2761" y1="0.380677" x2="52.315" y2="14.5297" gradientUnits="userSpaceOnUse">
<stop stop-color="#E7B4FF"/>
<stop offset="1" stop-color="#8F7BFF"/>
</linearGradient>
<linearGradient id="paint23_linear_249_8858" x1="63.7778" y1="0.848584" x2="61.6551" y2="14.876" gradientUnits="userSpaceOnUse">
<stop stop-color="#E7B4FF"/>
<stop offset="1" stop-color="#8F7BFF"/>
</linearGradient>
<linearGradient id="paint24_linear_249_8858" x1="75.3707" y1="3.92084" x2="70.2375" y2="17.1468" gradientUnits="userSpaceOnUse">
<stop stop-color="#E7B4FF"/>
<stop offset="1" stop-color="#8F7BFF"/>
</linearGradient>
<linearGradient id="paint25_linear_249_8858" x1="85.2443" y1="8.9236" x2="77.5845" y2="20.8652" gradientUnits="userSpaceOnUse">
<stop stop-color="#E7B4FF"/>
<stop offset="1" stop-color="#8F7BFF"/>
</linearGradient>
<linearGradient id="paint26_linear_249_8858" x1="93.8019" y1="15.6714" x2="83.9539" y2="25.8838" gradientUnits="userSpaceOnUse">
<stop stop-color="#E7B4FF"/>
<stop offset="1" stop-color="#8F7BFF"/>
</linearGradient>
<linearGradient id="paint27_linear_249_8858" x1="101.11" y1="24.2937" x2="89.3984" y2="32.3002" gradientUnits="userSpaceOnUse">
<stop stop-color="#E7B4FF"/>
<stop offset="1" stop-color="#8F7BFF"/>
</linearGradient>
<linearGradient id="paint28_linear_249_8858" x1="106.573" y1="34.3535" x2="93.4656" y2="39.7824" gradientUnits="userSpaceOnUse">
<stop stop-color="#E7B4FF"/>
<stop offset="1" stop-color="#8F7BFF"/>
</linearGradient>
<linearGradient id="paint29_linear_249_8858" x1="109.758" y1="44.9092" x2="95.8321" y2="47.6205" gradientUnits="userSpaceOnUse">
<stop stop-color="#E7B4FF"/>
<stop offset="1" stop-color="#8F7BFF"/>
</linearGradient>
</defs>
</svg>
