<svg width="21" height="21" viewBox="0 0 21 21" fill="none" xmlns="http://www.w3.org/2000/svg">
<path d="M10.5 0L11.2847 5.33845L13.6036 0.469108L12.7843 5.80232L16.4315 1.83474L14.081 6.68884L18.7323 3.97556L15.0594 7.91923L20.3016 6.70135L15.6328 9.38419L21 9.76987L15.75 10.9535L20.7655 12.9085L15.4008 12.4878L19.6188 15.8385L14.6162 13.8507L17.6618 18.2993L13.4657 14.9211L15.0686 20.0723L12.0518 15.6039L12.0694 21L10.5 15.8385L8.93066 21L8.94821 15.6039L5.93146 20.0723L7.5343 14.9211L3.33817 18.2993L6.38389 13.8507L1.38124 15.8385L5.59922 12.4878L0.23455 12.9085L5.25001 10.9535L0 9.76987L5.36729 9.38419L0.698415 6.70135L5.94063 7.91923L2.26776 3.97556L6.91907 6.68884L4.56856 1.83474L8.21575 5.80232L7.3964 0.469108L9.71538 5.33845L10.5 0Z" fill="#A098DB"/>
</svg>
